# xmcd
#
# Track frame offsets:
# 150
# 24365
# 43486
# 72746
# 88651
# 113996
# 131323
# 159434
# 184162
# 211359
# 226734
#
# Disc length: 3244 seconds
#
#
# Revision: 0
# Processed by: cddbd v1.5.2PL0 Copyright (c) Steve Scherf et al.
# Submitted via: Nero 7, 11, 10, 0 
#
DISCID=960caa0b
DTITLE=J.B. Hutto - Hip Shakin' - Slide Guitar Master
DYEAR=2000
DGENRE=Blues
TTITLE0=Honey Bee
TTITLE1=Dust My Broom
TTITLE2=Garbage Man
TTITLE3=Too Much Alcohol
TTITLE4=The Things I Used To Do
TTITLE5=Dim Lights
TTITLE6=Long Distance Call
TTITLE7=J.B.'s Boogie
TTITLE8=Mistake In Life
TTITLE9=Hip Shakin'
TTITLE10=Milkman Blues
EXTD=
EXTT0=Honey Bee
EXTT1=Dust My Broom
EXTT2=Garbage Man
EXTT3=Too Much Alcohol
EXTT4=The Things I Used To Do
EXTT5=Dim Lights
EXTT6=Long Distance Call
EXTT7=J.B.'s Boogie
EXTT8=Mistake In Life
EXTT9=Hip Shakin'
EXTT10=Milkman Blues
PLAYORDER=
